<svg xmlns="http://www.w3.org/2000/svg" fill="none" viewBox="0 0 510 621"><path fill="#fff" d="M17.268-55v18.252L-1-18.46V-.216l18.277 18.298v18.27l18.25 18.27v36.541l36.5 36.541v-18.271l18.25 18.271v18.27l18.25 18.27h54.75l18.25 18.271h18.25l18.25 18.27 18.25 18.27h18.25v18.27l-18.25 18.271v36.54l18.25 18.27v18.271l36.5 36.54v18.271l18.25 18.27v18.27l-18.25 18.27v36.541l-18.25 18.27v91.351l36.5 36.541h18.25l-18.25-18.27V584.46l18.25-18.27v-36.54l18.25-18.271 18.25-18.27v-18.27h18.25l36.5-36.541v-18.27l18.25-18.27h18.25l18.25-18.27v-36.541l18.25-18.27 18.25-18.271v-18.27l-18.25-18.27h-36.5l-18.25-18.27h-18.25v-18.271l-18.25-18.27h-18.25l-18.25-18.27h-54.75l-18.25-18.27-18.25 18.27h-36.5l-18.25-18.27v-18.271h-18.25l-18.25-18.27 18.25-18.27h-18.25l-18.25 18.27h-18.25l-18.25-18.27v-18.271l18.25-18.27h18.25l18.25-18.27h18.25l18.25 18.27h18.104l-18.177-18.197V54.622l18.214-18.234V18.08L254.473-.244v-18.215l18.286-18.307V-55H17.269z"/><path fill="#fff" d="m204.788 157.94 18.25-18.27h18.25l18.25 18.27v18.27h-18.25l-18.25-18.27h-18.25zm73 0v18.27h18.25l18.25-18.27h-36.5z"/></svg>