<svg width="126" height="126" viewBox="0 0 126 126" fill="none" xmlns="http://www.w3.org/2000/svg">
<path d="M84 42C82.2045 42 80.4457 42.1838 78.75 42.525C71.862 35.4743 62.496 31.5 52.5 31.5C32.235 31.5 15.75 47.985 15.75 68.25V89.25H110.25V68.25C110.25 53.7758 98.4742 42 84 42ZM99.75 78.75H26.25V68.25C26.25 53.7758 38.0257 42 52.5 42C58.2855 42 63.7718 43.8638 68.2658 47.25C61.8818 52.0433 57.75 59.6715 57.75 68.25H68.25C68.25 59.5665 75.3165 52.5 84 52.5C92.6835 52.5 99.75 59.5665 99.75 68.25V78.75Z" fill="#83FF97"/>
</svg>
