<svg width="126" height="126" viewBox="0 0 126 126" fill="none" xmlns="http://www.w3.org/2000/svg">
<path fill-rule="evenodd" clip-rule="evenodd" d="M78.75 32.025C80.4457 31.6838 82.2045 31.5 84 31.5C98.4742 31.5 110.25 43.2758 110.25 57.75V78.75H15.75V57.75C15.75 37.485 32.235 21 52.5 21C62.496 21 71.862 24.9743 78.75 32.025ZM26.25 68.25H99.75V57.75C99.75 49.0665 92.6835 42 84 42C75.3165 42 68.25 49.0665 68.25 57.75H57.75C57.75 49.1715 61.8818 41.5433 68.2658 36.75C63.7718 33.3638 58.2855 31.5 52.5 31.5C38.0257 31.5 26.25 43.2758 26.25 57.75V68.25ZM53.529 110.25H41.4067L26.25 84H38.3723L53.529 110.25ZM50.48 84L65.6367 110.25H77.759L62.6022 84H50.48ZM89.864 110.25L74.7125 84H86.8347L101.991 110.25H89.864Z" fill="#83FF97"/>
</svg>
