<svg width="126" height="126" viewBox="0 0 126 126" fill="none" xmlns="http://www.w3.org/2000/svg">
<path fill-rule="evenodd" clip-rule="evenodd" d="M68.25 5.25H57.75V26.25H68.25V5.25ZM85.274 33.3354L100.121 18.4842L107.547 25.9077L92.6996 40.7589L85.274 33.3354ZM63 31.5C45.6225 31.5 31.5 45.6225 31.5 63C31.5 80.3775 45.6225 94.5 63 94.5C80.3775 94.5 94.5 80.3775 94.5 63C94.5 45.6225 80.3775 31.5 63 31.5ZM63 84C51.3975 84 42 74.6025 42 63C42 51.3975 51.3975 42 63 42C74.6025 42 84 51.3975 84 63C84 74.6025 74.6025 84 63 84ZM57.75 99.75V120.75H68.25V99.75H57.75ZM85.2433 92.6927L92.6678 85.2682L107.517 100.117L100.092 107.542L85.2433 92.6927ZM120.75 57.75H99.75V68.25H120.75V57.75ZM18.4801 25.8783L25.9047 18.4537L40.7537 33.3028L33.3292 40.7274L18.4801 25.8783ZM26.25 57.75H5.25V68.25H26.25V57.75ZM18.4493 100.096L33.3005 85.2491L40.724 92.6747L25.8728 107.522L18.4493 100.096Z" fill="#83FF97"/>
</svg>
