<svg width="126" height="126" viewBox="0 0 126 126" fill="none" xmlns="http://www.w3.org/2000/svg">
<path fill-rule="evenodd" clip-rule="evenodd" d="M57.75 5.25H68.25V26.25H57.75V5.25ZM89.25 42.525C90.93 42.1575 92.715 42 94.5 42C108.99 42 120.75 53.76 120.75 68.25V89.25H26.25V68.25C26.25 47.985 42.735 31.5 63 31.5C72.975 31.5 82.3725 35.49 89.25 42.525ZM36.75 78.75H110.25V68.25C110.25 59.5875 103.162 52.5 94.5 52.5C85.8375 52.5 78.75 59.5875 78.75 68.25H68.25C68.25 59.6925 72.345 52.0275 78.75 47.25C74.2875 43.8375 68.775 42 63 42C48.51 42 36.75 53.76 36.75 68.25V78.75ZM21.4324 20.7235L14.0068 28.147L28.8538 42.9982L36.2794 35.5747L21.4324 20.7235ZM0 63H21V73.5H0V63Z" fill="#83FF97"/>
</svg>
